<svg width="128" height="128" viewBox="0 0 128 128" fill="none" xmlns="http://www.w3.org/2000/svg">
<rect width="128" height="128" rx="20" fill="#67EA94"/>
<path d="M76 33.375C77.709 33.375 79.2949 34.25 80.2109 35.6992L109.824 82.9219C110.59 84.1387 111 85.5469 111 86.9824C111 91.207 107.582 94.625 103.357 94.625H48.6426C44.418 94.625 41 91.207 41 86.9824C41 85.5469 41.4102 84.1387 42.1758 82.9219L71.7891 35.6992C72.6914 34.25 74.291 33.375 76 33.375ZM84.8867 59.625L76 45.4609L65.1855 62.7012L67.6875 66.0371C68.5625 67.1992 70.3125 67.1992 71.1875 66.0371L74.6875 61.375C75.5078 60.2676 76.8066 59.625 78.1875 59.625H84.8867Z" fill="#2C2D3C"/>
<path d="M49 39L18 89" stroke="#2C2D3C" stroke-width="12" stroke-linecap="round"/>
</svg>
