<svg width="150" height="100" viewBox="0 0 150 100" fill="none" xmlns="http://www.w3.org/2000/svg">
<rect width="150" height="100" rx="8" fill="#2C2D3C"/>
<path d="M90 19.375C91.709 19.375 93.2949 20.25 94.2109 21.6992L123.824 68.9219C124.59 70.1387 125 71.5469 125 72.9824C125 77.207 121.582 80.625 117.357 80.625H62.6426C58.418 80.625 55 77.207 55 72.9824C55 71.5469 55.4102 70.1387 56.1758 68.9219L85.7891 21.6992C86.6914 20.25 88.291 19.375 90 19.375ZM98.8867 45.625L90 31.4609L79.1855 48.7012L81.6875 52.0371C82.5625 53.1992 84.3125 53.1992 85.1875 52.0371L88.6875 47.375C89.5078 46.2676 90.8066 45.625 92.1875 45.625H98.8867Z" fill="#67EA94"/>
<path d="M63 25L32 75" stroke="#67EA94" stroke-width="12" stroke-linecap="round"/>
</svg>
