<svg width="854" height="132" viewBox="0 0 854 132" fill="none" xmlns="http://www.w3.org/2000/svg">
<rect x="16" y="16" width="150" height="100" rx="8" fill="#2C2D3C"/>
<path d="M106 35.375C107.709 35.375 109.295 36.25 110.211 37.6992L139.824 84.9219C140.59 86.1387 141 87.5469 141 88.9824C141 93.207 137.582 96.625 133.357 96.625H78.6426C74.418 96.625 71 93.207 71 88.9824C71 87.5469 71.4102 86.1387 72.1758 84.9219L101.789 37.6992C102.691 36.25 104.291 35.375 106 35.375ZM114.887 61.625L106 47.4609L95.1855 64.7012L97.6875 68.0371C98.5625 69.1992 100.312 69.1992 101.188 68.0371L104.688 63.375C105.508 62.2676 106.807 61.625 108.188 61.625H114.887Z" fill="#67EA94"/>
<path d="M79 41L48 91" stroke="#67EA94" stroke-width="12" stroke-linecap="round"/>
<path d="M281.6 22.385C281.67 22.375 281.72 22.345 281.79 22.345L281.77 22.355H295.12C296.29 22.355 297.25 23.305 297.25 24.485V107.525C297.25 108.695 296.3 109.655 295.12 109.655H281.77C280.6 109.655 279.64 108.705 279.64 107.525V58.615C279.64 56.585 277.06 55.705 275.82 57.315L259.82 78.035C259.41 78.615 258.75 78.885 258.09 78.885H250.93C250.27 78.885 249.62 78.615 249.2 78.035L229.62 52.665V52.775L212.44 30.365C212.15 29.995 212 29.535 212 29.065V24.475C212 23.305 212.95 22.345 214.13 22.345H227.48C227.54 22.345 227.59 22.375 227.64 22.375C227.74 22.385 227.83 22.415 227.92 22.435C228.54 22.565 229.05 22.945 229.34 23.485L252.83 53.915C253.69 55.025 255.36 55.025 256.21 53.915L279.89 23.235C280.3 22.665 280.94 22.385 281.6 22.385Z" fill="#2C2D3C"/>
<path d="M212.01 107.515V47.025L212 47.015C212 44.975 214.59 44.095 215.83 45.715L229.18 63.135C229.47 63.505 229.62 63.965 229.62 64.435V107.515C229.62 108.685 228.67 109.645 227.49 109.645H214.14C212.97 109.645 212.01 108.695 212.01 107.515Z" fill="#2C2D3C"/>
<path d="M315.38 22.63H382.75L382.74 22.64C383.91 22.64 384.87 23.59 384.87 24.77V38.07C384.87 39.24 383.92 40.2 382.74 40.2H359.97C358.8 40.2 357.84 41.15 357.84 42.33V107.24C357.84 108.41 356.89 109.37 355.71 109.37H342.41C341.24 109.37 340.28 108.42 340.28 107.24V42.32C340.28 41.15 339.33 40.19 338.15 40.19H315.38C314.21 40.19 313.25 39.24 313.25 38.06V24.76C313.25 23.59 314.2 22.63 315.38 22.63Z" fill="#2C2D3C"/>
<path d="M461.92 22.34H475.27L475.26 22.35C476.43 22.35 477.39 23.3 477.39 24.48V107.53C477.39 108.7 476.44 109.66 475.26 109.66H462.44C462.32 109.66 462.21 109.61 462.09 109.59C461.22 109.64 460.34 109.32 459.78 108.57L422.33 58.12C421.1 56.47 418.48 57.33 418.48 59.39V107.52C418.48 108.69 417.53 109.65 416.35 109.65H403C401.83 109.65 400.87 108.7 400.87 107.52V24.48C400.87 23.31 401.82 22.35 403 22.35H415.82C416.25 22.35 416.64 22.47 417 22.65C417.2 22.67 417.42 22.81 417.66 23.09C417.68 23.11 417.71 23.13 417.73 23.16C417.75 23.18 417.79 23.21 417.79 23.21L455.95 73.79C457.19 75.42 459.79 74.55 459.79 72.5V24.47C459.79 23.3 460.74 22.34 461.92 22.34Z" fill="#2C2D3C"/>
<path d="M562.99 22.385C563.06 22.375 563.11 22.345 563.18 22.345L563.16 22.355H576.51C577.68 22.355 578.64 23.305 578.64 24.485V107.525C578.64 108.695 577.69 109.655 576.51 109.655H563.16C561.99 109.655 561.03 108.705 561.03 107.525V58.615C561.03 56.585 558.45 55.705 557.21 57.315L541.21 78.035C540.8 78.615 540.14 78.885 539.48 78.885H532.32C531.66 78.885 531.01 78.615 530.59 78.035L511.01 52.665V52.775L493.83 30.365C493.54 29.995 493.39 29.535 493.39 29.065V24.475C493.39 23.305 494.34 22.345 495.52 22.345H508.87C508.93 22.345 508.98 22.375 509.03 22.375C509.13 22.385 509.22 22.415 509.31 22.435C509.93 22.565 510.44 22.945 510.73 23.485L534.22 53.915C535.08 55.025 536.75 55.025 537.6 53.915L561.28 23.235C561.69 22.665 562.33 22.385 562.99 22.385Z" fill="#2C2D3C"/>
<path d="M493.4 107.515V47.025L493.39 47.015C493.39 44.975 495.98 44.095 497.22 45.715L510.57 63.135C510.86 63.505 511.01 63.965 511.01 64.435V107.515C511.01 108.685 510.06 109.645 508.88 109.645H495.53C494.36 109.645 493.4 108.695 493.4 107.515Z" fill="#2C2D3C"/>
<path d="M594.65 22.965V39.385C594.65 39.7164 594.919 39.985 595.25 39.985L659.99 39.985C660.321 39.985 660.59 39.7164 660.59 39.385V22.965C660.59 22.6337 660.321 22.365 659.99 22.365L595.25 22.365C594.919 22.365 594.65 22.6337 594.65 22.965Z" fill="#2C2D3C"/>
<path d="M594.65 57.785V74.205C594.65 74.5364 594.919 74.805 595.25 74.805H659.99C660.321 74.805 660.59 74.5364 660.59 74.205V57.785C660.59 57.4537 660.321 57.185 659.99 57.185H595.25C594.919 57.185 594.65 57.4537 594.65 57.785Z" fill="#2C2D3C"/>
<path d="M594.64 92.615V109.035C594.64 109.366 594.909 109.635 595.24 109.635H659.98C660.311 109.635 660.58 109.366 660.58 109.035V92.615C660.58 92.2837 660.311 92.015 659.98 92.015H595.24C594.909 92.015 594.64 92.2837 594.64 92.615Z" fill="#2C2D3C"/>
<path d="M676.602 81.65C676.632 79.41 678.532 77.65 680.762 77.65H689.942C692.172 77.65 693.922 79.3 694.012 81.42C694.392 89.07 701.512 93.54 714.452 93.54C732.332 93.54 732.422 86.48 732.452 83.89C732.502 79.77 727.232 77.66 721.602 75.89C701.442 69.53 679.102 67.89 679.352 47.65C679.532 32.82 690.952 21.88 713.192 21.88C733.662 21.88 748.002 32.71 747.812 48.47C747.782 50.7 745.882 52.35 743.762 52.35H734.582C726.822 52.35 736.522 38.35 712.282 38.35C697.572 38.35 696.212 44.47 696.162 48.23C696.072 55.64 727.462 57.76 739.492 65.53C746.032 69.76 749.602 76 749.512 83.53C749.312 100.24 736.012 110.12 714.132 110.12C692.252 110.12 676.372 99.65 676.592 81.65H676.602Z" fill="#2C2D3C"/>
<path d="M820.114 54.58V24.48C820.114 23.31 821.064 22.35 822.244 22.35H835.594C836.764 22.35 837.724 23.3 837.724 24.48V107.52C837.724 108.69 836.774 109.65 835.594 109.65H822.244C821.074 109.65 820.114 108.7 820.114 107.52V76.47C820.114 75.3 819.164 74.34 817.984 74.34H785.254C784.084 74.34 783.124 75.29 783.124 76.47V107.52C783.124 108.69 782.174 109.65 780.994 109.65H767.644C766.474 109.65 765.514 108.7 765.514 107.52V24.48C765.514 23.31 766.464 22.35 767.644 22.35H780.994C782.164 22.35 783.124 23.3 783.124 24.48V54.58C783.124 55.75 784.074 56.71 785.254 56.71H817.984C819.154 56.71 820.114 55.76 820.114 54.58Z" fill="#2C2D3C"/>
</svg>
